HIERARCHY
ROOT Hips
{
 OFFSET 0.000000 0.000000 0.000000
 CHANNELS 6 Xposition Yposition Zposition Yrotation Xrotation Zrotation
 JOINT Chest
 {
  OFFSET 0.000000 9.585900 0.002600
  CHANNELS 3 Yrotation Xrotation Zrotation
  JOINT Chest2
  {
   OFFSET 0.000000 9.601200 -0.005300
   CHANNELS 3 Yrotation Xrotation Zrotation
   JOINT Chest3
   {
    OFFSET 0.000000 9.561800 0.000000
    CHANNELS 3 Yrotation Xrotation Zrotation
    JOINT Chest4
    {
     OFFSET 0.000000 9.552100 0.000000
     CHANNELS 3 Yrotation Xrotation Zrotation
     JOINT Neck
     {
      OFFSET 0.000000 14.453000 0.000000
      CHANNELS 3 Yrotation Xrotation Zrotation
      JOINT Head
      {
       OFFSET 0.000000 8.936500 -0.011300
       CHANNELS 3 Yrotation Xrotation Zrotation
       End Site
       {
        OFFSET 0.000000 17.073600 -0.006000
       }
      }
     }
     JOINT RightCollar
     {
      OFFSET -2.921100 9.558500 0.000000
      CHANNELS 3 Yrotation Xrotation Zrotation
      JOINT RightShoulder
      {
       OFFSET -13.519700 0.000000 0.000000
       CHANNELS 3 Yrotation Xrotation Zrotation
       JOINT RightElbow
       {
        OFFSET 0.000000 -29.696600 0.000000
        CHANNELS 3 Yrotation Xrotation Zrotation
        JOINT RightWrist
        {
         OFFSET 0.000000 -24.004700 0.000000
         CHANNELS 3 Yrotation Xrotation Zrotation
         End Site
         {
          OFFSET 0.000000 -17.728500 0.000000
         }
        }
       }
      }
     }
     JOINT LeftCollar
     {
      OFFSET 2.921100 9.558500 0.000000
      CHANNELS 3 Yrotation Xrotation Zrotation
      JOINT LeftShoulder
      {
       OFFSET 13.519700 0.000000 0.000000
       CHANNELS 3 Yrotation Xrotation Zrotation
       JOINT LeftElbow
       {
        OFFSET 0.000000 -29.696600 0.000000
        CHANNELS 3 Yrotation Xrotation Zrotation
        JOINT LeftWrist
        {
         OFFSET 0.000000 -24.004700 0.000000
         CHANNELS 3 Yrotation Xrotation Zrotation
         End Site
         {
          OFFSET 0.000000 -17.728500 0.000000
         }
        }
       }
      }
     }
    }
   }
  }
 }
 JOINT RightHip
 {
  OFFSET -7.771700 -0.012900 -0.001300
  CHANNELS 3 Yrotation Xrotation Zrotation
  JOINT RightKnee
  {
   OFFSET 0.000000 -40.869800 0.001200
   CHANNELS 3 Yrotation Xrotation Zrotation
   JOINT RightAnkle
   {
    OFFSET 0.000000 -39.717900 0.002100
    CHANNELS 3 Yrotation Xrotation Zrotation
    JOINT RightToe
    {
     OFFSET 0.000000 -4.965400 11.033500
     CHANNELS 3 Yrotation Xrotation Zrotation
     End Site
     {
      OFFSET 0.000000 -1.423100 5.872300
     }
    }
   }
  }
 }
 JOINT LeftHip
 {
  OFFSET 7.771700 -0.012900 -0.001300
  CHANNELS 3 Yrotation Xrotation Zrotation
  JOINT LeftKnee
  {
   OFFSET 0.000000 -40.869800 0.001200
   CHANNELS 3 Yrotation Xrotation Zrotation
   JOINT LeftAnkle
   {
    OFFSET 0.000000 -39.717900 0.002100
    CHANNELS 3 Yrotation Xrotation Zrotation
    JOINT LeftToe
    {
     OFFSET 0.000000 -4.965400 11.033500
     CHANNELS 3 Yrotation Xrotation Zrotation
     End Site
     {
      OFFSET 0.000000 -1.423100 5.872300
     }
    }
   }
  }
 }
}
MOTION
Frames: 12
Frame Time: 0.008333
0.000000 85.388000 0.000000 0.000000 -5.767877 0.000000 0.000000 11.653817 0.000000 0.000000 -5.885947 0.000000 0.000000 -0.000000 0.000000 0.000000 -0.000000 0.000000 0.000000 12.528835 0.000000 0.000000 0.711642 0.000000 0.000000 -0.000000 0.000000 0.000000 0.000000 -90.000000 0.000000 -2.309062 0.000000 0.000000 2.309062 0.000000 0.000000 -0.000000 0.000000 0.000000 -0.000000 90.000000 0.000000 -2.309062 0.000000 0.000000 2.309062 0.000000 0.000000 8.520406 0.000000 0.000000 1.905762 0.000000 -0.000000 -4.658285 0.000000 0.000000 -0.000000 0.000000 0.000000 8.520406 0.000000 0.000000 1.905762 0.000000 -0.000000 -4.658285 0.000000 0.000000 -0.000000 0.000000
-95.697888 46.524702 -26.582255 174.142522 -31.744363 -2.425329 -0.087320 19.524111 1.775071 -0.099044 2.363018 0.243982 -0.054379 3.881304 0.400549 -0.210171 16.833559 1.734292 -7.890694 19.842778 0.858457 -14.538570 1.503014 3.859644 0.469197 0.927075 -3.001436 -5.267626 -21.743817 -17.759058 -102.067648 -78.284542 129.958029 1.481580 6.327435 -17.175132 0.100058 0.474597 3.326493 -5.106930 -5.897427 12.651628 64.952772 -72.255238 -101.924476 -2.794047 14.030826 6.891283 -1.882303 -55.563708 -6.291558 -172.776861 79.865451 -163.626603 -7.538785 -13.276449 -6.734602 0.028059 -0.223415 0.009546 -0.183138 -57.120469 11.942219 -123.844169 83.806924 -127.395392 6.193706 -7.375373 4.706738 0.041586 0.283835 0.007550
-95.696458 46.524133 -26.578604 174.120500 -31.726907 -2.429103 -0.101985 19.507823 1.778123 -0.092758 2.367650 0.243793 -0.067824 3.874625 0.401317 -0.230162 16.831015 1.732962 -8.107932 19.746164 0.918138 -14.948631 1.332227 4.043744 0.473900 0.948687 -3.028792 -5.222771 -21.770066 -17.775344 -102.871602 -78.365324 130.741707 1.523227 6.480037 -16.955640 0.131817 0.465853 3.285620 -5.120227 -5.917246 12.658507 64.931247 -72.232900 -101.920566 -2.805462 14.030874 6.847921 -1.861356 -55.583004 -6.261625 -172.720970 79.873171 -163.573256 -7.548729 -13.265424 -6.711874 0.022027 -0.218248 0.004909 -0.205619 -57.138606 11.969270 -123.844506 83.803970 -127.390187 6.216165 -7.378956 4.696400 0.036249 0.286021 0.004738
-95.696584 46.523990 -26.573743 174.107115 -31.704504 -2.428458 -0.128090 19.497436 1.770825 -0.100203 2.376877 0.246943 -0.068510 3.864066 0.397770 -0.252139 16.829332 1.729903 -8.354094 19.625116 0.990602 -15.412866 1.124384 4.250228 0.509192 0.952282 -3.052216 -5.200347 -21.783593 -17.778756 -104.230751 -78.508843 132.020923 1.612984 6.697688 -16.570409 0.133374 0.450506 3.214169 -5.114878 -5.974125 12.692637 64.815254 -72.197245 -101.814277 -2.818535 14.042835 6.814527 -1.832696 -55.609257 -6.241539 -172.677607 79.882513 -163.537269 -7.572768 -13.250571 -6.684699 0.017181 -0.215855 0.003053 -0.224709 -57.159223 11.980283 -123.815520 83.804580 -127.356583 6.234466 -7.380412 4.682204 0.037470 0.289572 0.004915
-95.697552 46.523866 -26.566096 174.097094 -31.668142 -2.425607 -0.207576 19.517154 1.751299 -0.073788 2.357462 0.244738 -0.062562 3.850698 0.393716 -0.341129 16.847048 1.732539 -8.572362 19.458671 1.045259 -15.935477 0.884759 4.478862 0.566743 0.952668 -3.127644 -5.162769 -21.824375 -17.781781 -106.191298 -78.667272 133.834267 1.785146 6.987344 -15.929831 0.249710 0.415519 3.149910 -5.118574 -5.994986 12.701401 64.804006 -72.182235 -101.814082 -2.845204 14.037822 6.738039 -1.786959 -55.651252 -6.230834 -172.625947 79.894124 -163.490659 -7.610566 -13.230327 -6.651772 0.031289 -0.212543 0.005299 -0.240643 -57.191962 11.981684 -123.769834 83.817561 -127.303114 6.242619 -7.375536 4.664462 0.028463 0.294403 0.005833
-95.700219 46.524451 -26.556250 174.080944 -31.622100 -2.410311 -0.219728 19.488356 1.739396 -0.075881 2.356862 0.244816 -0.132086 3.889608 0.402269 -0.354692 16.828483 1.722946 -8.851385 19.285946 1.118127 -16.514882 0.622936 4.733343 0.585235 0.961577 -3.208271 -5.196738 -21.834277 -17.804179 -108.946554 -78.773607 136.380003 2.090844 7.341323 -14.929543 0.329263 0.381960 3.096159 -5.109152 -5.999547 12.714588 64.849595 -72.170034 -101.881962 -2.890064 14.029292 6.639891 -1.691684 -55.702110 -6.252869 -172.561002 79.908929 -163.419255 -7.667113 -13.186898 -6.611363 0.042978 -0.225638 0.011706 -0.240147 -57.232493 11.966408 -123.678649 83.838368 -127.203554 6.251707 -7.401011 4.634518 0.051922 0.335210 0.016917
-95.700834 46.526689 -26.544474 174.073203 -31.571011 -2.413059 -0.262510 19.498756 1.733035 -0.049054 2.315755 0.243644 -0.173027 3.923859 0.405555 -0.374345 16.812347 1.720013 -9.171363 19.107300 1.207154 -17.141970 0.344834 5.012502 0.596931 0.958405 -3.285070 -5.241158 -21.813522 -17.768478 -112.428462 -78.907664 139.522298 2.581012 7.731670 -13.488055 0.366711 0.351849 3.029049 -5.099405 -6.018642 12.736180 64.936764 -72.153119 -102.003900 -2.952620 14.037762 6.540858 -1.595531 -55.756699 -6.267633 -172.495591 79.925413 -163.340329 -7.700437 -13.151009 -6.565433 0.031599 -0.228244 0.012058 -0.270359 -57.278276 11.980834 -123.639431 83.859315 -127.165119 6.266469 -7.396928 4.625553 0.043016 0.341410 0.013209
-95.701709 46.530253 -26.530209 174.063798 -31.508773 -2.416327 -0.304154 19.510020 1.727742 -0.075930 2.336561 0.245377 -0.148426 3.882651 0.404071 -0.406470 16.802705 1.722798 -9.508220 18.915877 1.302102 -17.804361 0.048689 5.310570 0.605590 0.939161 -3.369061 -5.335189 -21.748148 -17.700099 -116.381149 -78.956492 143.071726 3.281903 8.114401 -11.587498 0.402832 0.320733 2.953164 -5.084799 -6.030811 12.753674 65.038140 -72.150809 -102.130060 -3.037949 14.023064 6.383125 -1.495713 -55.821976 -6.275801 -172.394283 79.945822 -163.229458 -7.731354 -13.111667 -6.519289 0.025683 -0.228412 0.017550 -0.309010 -57.333069 12.000649 -123.591519 83.885618 -127.120376 6.283149 -7.390700 4.613849 0.034316 0.347594 0.011022
-95.702918 46.534285 -26.511758 174.066801 -31.422089 -2.429603 -0.345811 19.492423 1.729949 -0.091520 2.346644 0.247154 -0.145335 3.862361 0.405045 -0.440487 16.789833 1.728881 -9.855680 18.710454 1.401150 -18.490430 -0.268434 5.622864 0.607783 0.904684 -3.453029 -5.505805 -21.647364 -17.596380 -120.351756 -78.858285 146.638163 4.177115 8.432161 -9.275108 0.439978 0.279938 2.871119 -5.103372 -6.027880 12.738998 65.120585 -72.186174 -102.197130 -3.139170 13.985933 6.163227 -1.431106 -55.912471 -6.253019 -172.245334 79.970900 -163.088082 -7.764851 -13.065895 -6.472066 0.019127 -0.226620 0.028431 -0.363871 -57.411258 12.023401 -123.480005 83.924492 -127.001658 6.282562 -7.369950 4.588815 0.040440 0.352646 0.015375
-95.706197 46.539980 -26.491313 174.079289 -31.323653 -2.441338 -0.392741 19.470610 1.726313 -0.096646 2.341133 0.248885 -0.131309 3.822715 0.404485 -0.458355 16.782326 1.732522 -10.241396 18.515957 1.523537 -19.190091 -0.603861 5.947151 0.558195 0.879201 -3.510929 -5.792020 -21.533637 -17.451696 -123.819401 -78.581357 149.766751 5.189002 8.624566 -6.645517 0.389301 0.257655 2.787508 -5.067852 -6.006761 12.753922 65.214309 -72.221214 -102.286203 -3.257223 13.923580 5.872515 -1.418155 -56.013234 -6.215366 -172.198190 80.007170 -163.070528 -7.794652 -13.020190 -6.420072 0.030441 -0.221048 0.016527 -0.418060 -57.499822 12.035453 -123.371231 83.972072 -126.885004 6.263058 -7.341835 4.560910 0.051415 0.356813 0.021731
-95.713048 46.547156 -26.468968 174.104012 -31.211332 -2.445605 -0.448198 19.442503 1.707385 -0.102162 2.334393 0.251136 -0.121478 3.777194 0.407237 -0.477550 16.773166 1.736777 -10.624357 18.313462 1.649562 -19.890911 -0.953944 6.280935 0.489531 0.841202 -3.563469 -6.223016 -21.430676 -17.258378 -126.371650 -78.153710 152.102387 6.173859 8.653861 -3.840082 0.351522 0.228008 2.726040 -5.034187 -5.971074 12.757552 65.314300 -72.247716 -102.417614 -3.384388 13.842223 5.529016 -1.405104 -56.128104 -6.191162 -172.146486 80.046051 -163.059714 -7.830212 -12.973251 -6.363512 0.023525 -0.217633 0.006229 -0.487301 -57.593241 12.024794 -123.308515 84.047581 -126.824145 6.251764 -7.317226 4.535510 0.050056 0.368176 0.018593
-95.715704 46.558721 -26.448478 174.120876 -31.117140 -2.477352 -0.482832 19.438783 1.719158 -0.108330 2.327370 0.253545 -0.163345 3.814106 0.414632 -0.483949 16.696434 1.749636 -10.971664 18.085362 1.756899 -20.574353 -1.313687 6.620647 0.434793 0.766231 -3.633178 -6.806002 -21.352860 -17.012532 -127.722160 -77.631723 153.396881 6.968088 8.523946 -1.021404 0.357183 0.173997 2.653226 -5.000731 -5.922551 12.756849 65.380092 -72.278732 -102.468102 -3.524929 13.735055 5.052758 -1.369959 -56.230766 -6.083243 -171.669962 80.067114 -162.633645 -7.929773 -12.900655 -6.288409 0.068472 -0.235905 0.035265 -0.589584 -57.671193 12.068340 -123.221834 84.115549 -126.731937 6.253337 -7.278334 4.509323 0.038262 0.364453 0.013031
